P2
3 3
255
0 127 255
0 127 255
0 127 255
